<?xml version="1.0" standalone="no"?>
<!DOCTYPE svg PUBLIC "-//W3C//DTD SVG 20010904//EN"
 "http://www.w3.org/TR/2001/REC-SVG-20010904/DTD/svg10.dtd">
<svg version="1.0" xmlns="http://www.w3.org/2000/svg"
 width="520.000000pt" height="520.000000pt" viewBox="0 0 520.000000 520.000000"
 preserveAspectRatio="xMidYMid meet">
<metadata>
Created by potrace 1.11, written by Peter Selinger 2001-2013
</metadata>
<g transform="translate(0.000000,520.000000) scale(0.100000,-0.100000)"
fill="#000000" stroke="none">
<path d="M623 4027 c-28 -16 -60 -57 -79 -102 -12 -31 -15 -122 -14 -628 1
-326 -2 -788 -6 -1027 -6 -393 -5 -438 9 -467 20 -37 53 -63 82 -63 12 0 32
-11 44 -24 31 -33 146 -84 233 -102 126 -27 301 -6 427 51 167 77 300 251 385
506 95 282 94 608 0 871 -111 308 -361 605 -629 745 -38 20 -122 71 -185 113
-123 82 -221 140 -236 140 -5 -1 -19 -6 -31 -13z m387 -540 c306 -204 431
-351 516 -607 27 -81 28 -93 28 -270 0 -173 -2 -191 -28 -275 -58 -190 -158
-333 -269 -386 -75 -35 -178 -53 -281 -47 -87 5 -153 28 -214 75 l-35 26 8
266 c4 146 7 519 6 829 l-1 562 82 -51 c46 -29 130 -83 188 -122z"/>
<path d="M3792 3986 c-59 -32 -89 -123 -131 -391 -33 -212 -90 -495 -156 -776
-61 -260 -126 -509 -134 -509 -19 0 -123 607 -176 1020 -60 466 -93 605 -156
639 -16 9 -36 11 -54 7 -95 -24 -139 -171 -210 -702 -20 -148 -69 -438 -110
-644 -83 -419 -103 -552 -112 -720 -7 -137 4 -187 48 -224 34 -29 55 -32 94
-14 47 21 65 76 92 277 13 102 58 382 99 621 41 239 80 473 86 520 6 47 14 88
18 93 3 4 12 -37 19 -90 32 -250 167 -1003 217 -1218 37 -157 96 -214 174
-168 57 33 101 151 165 438 62 278 245 1039 255 1060 7 16 9 16 9 4 2 -32 81
-656 100 -789 94 -637 111 -713 173 -765 36 -30 67 -32 102 -4 38 30 56 71 56
129 0 28 -29 198 -65 378 -89 452 -121 678 -190 1338 -14 132 -34 274 -44 316
-41 159 -95 215 -169 174z"/>
<path d="M2140 1963 c-24 -9 -61 -46 -78 -78 -21 -41 -21 -150 1 -191 23 -44
73 -84 105 -84 73 0 132 80 132 180 0 117 -79 202 -160 173z"/>
<path d="M4590 1963 c-24 -9 -61 -46 -78 -78 -21 -41 -21 -150 1 -191 23 -44
73 -84 105 -84 73 0 132 80 132 180 0 117 -79 202 -160 173z"/>
</g>
</svg>
