<?xml version="1.0" standalone="no"?>
<!DOCTYPE svg PUBLIC "-//W3C//DTD SVG 20010904//EN"
 "http://www.w3.org/TR/2001/REC-SVG-20010904/DTD/svg10.dtd">
<svg version="1.0" xmlns="http://www.w3.org/2000/svg"
 width="520.000000pt" height="520.000000pt" viewBox="0 0 520.000000 520.000000"
 preserveAspectRatio="xMidYMid meet">
<metadata>
Created by potrace 1.11, written by Peter Selinger 2001-2013
</metadata>
<g transform="translate(0.000000,520.000000) scale(0.100000,-0.100000)"
fill="#000000" stroke="none">
<path d="M635 3900 c-115 -10 -339 -43 -470 -68 l-90 -17 -3 -42 -3 -42 104 2
c159 3 176 -14 184 -173 11 -201 -21 -1356 -48 -1728 -6 -85 -9 -155 -7 -157
2 -2 40 2 86 8 72 9 95 8 175 -9 141 -29 403 -27 512 4 346 100 599 387 705
797 43 166 53 279 47 498 -5 207 -23 304 -81 446 -81 198 -252 354 -466 426
-158 52 -422 75 -645 55z m312 -121 c171 -23 331 -103 434 -217 64 -71 140
-228 168 -342 78 -326 45 -764 -79 -1027 -97 -208 -232 -333 -425 -393 -124
-39 -368 -38 -494 2 l-33 10 6 72 c12 143 39 955 52 1573 l7 322 51 4 c114 8
239 6 313 -4z"/>
<path d="M2705 3874 c-45 -8 -124 -25 -175 -37 l-95 -22 -3 -41 -3 -41 116 1
c115 1 117 1 140 -26 33 -39 39 -102 31 -381 -21 -736 -83 -1231 -195 -1561
-17 -50 -31 -93 -31 -98 0 -11 143 -10 174 2 58 22 75 85 100 360 36 391 56
819 57 1230 l1 285 18 -55 c82 -244 442 -1407 517 -1671 71 -251 53 -271 279
316 185 482 537 1376 540 1372 1 -1 -2 -56 -7 -122 -27 -368 -38 -1408 -15
-1536 17 -93 47 -154 89 -179 40 -25 150 -27 228 -4 47 14 216 81 228 90 2 2
-1 21 -7 43 l-12 39 -51 -15 c-69 -20 -170 -14 -200 12 -35 32 -57 94 -70 195
-13 104 -6 746 11 1120 12 237 38 653 45 692 3 22 -1 28 -27 37 -44 16 -124
14 -157 -4 -21 -11 -37 -34 -59 -87 -81 -195 -607 -1531 -637 -1618 l-22 -65
-22 75 c-111 374 -503 1605 -525 1643 -37 69 -96 80 -261 51z"/>
<path d="M2063 1970 c-45 -27 -73 -87 -73 -155 0 -101 52 -165 134 -165 42 0
102 47 122 97 18 43 18 137 -1 173 -35 68 -116 91 -182 50z"/>
<path d="M4880 1952 c-76 -76 -78 -196 -5 -269 109 -109 271 63 210 223 -21
56 -62 84 -124 84 -37 0 -49 -6 -81 -38z"/>
</g>
</svg>
